<mxfile host="Electron" modified="2021-03-05T15:44:58.619Z" agent="5.0 (Windows NT 10.0; Win64; x64) AppleWebKit/537.36 (KHTML, like Gecko) draw.io/14.4.3 Chrome/87.0.4280.141 Electron/11.3.0 Safari/537.36" etag="fGD5Yo8j4-wDdU3nnuHZ" compressed="false" version="14.4.3" type="device">
  <diagram id="5Za6QEDyrxp3GzCgGSWg" name="Page-1">
    <mxGraphModel dx="1872" dy="874" grid="1" gridSize="10" guides="1" tooltips="1" connect="1" arrows="1" fold="1" page="1" pageScale="1" pageWidth="850" pageHeight="1100" math="0" shadow="0">
      <root>
        <mxCell id="0" />
        <mxCell id="1" parent="0" />
        <mxCell id="fJNHWVGutAqgB4lxBWRM-1" value="" style="endArrow=none;html=1;shadow=0;strokeWidth=20;" parent="1" edge="1">
          <mxGeometry width="50" height="50" relative="1" as="geometry">
            <mxPoint x="320" y="130" as="sourcePoint" />
            <mxPoint x="400" y="130" as="targetPoint" />
          </mxGeometry>
        </mxCell>
        <mxCell id="fJNHWVGutAqgB4lxBWRM-2" value="" style="endArrow=none;html=1;shadow=0;strokeWidth=20;" parent="1" edge="1">
          <mxGeometry width="50" height="50" relative="1" as="geometry">
            <mxPoint x="360" y="120" as="sourcePoint" />
            <mxPoint x="360" y="200" as="targetPoint" />
          </mxGeometry>
        </mxCell>
        <mxCell id="fJNHWVGutAqgB4lxBWRM-3" value="" style="endArrow=none;html=1;shadow=0;strokeWidth=20;rounded=0;" parent="1" edge="1">
          <mxGeometry width="50" height="50" relative="1" as="geometry">
            <mxPoint x="465" y="130" as="sourcePoint" />
            <mxPoint x="385" y="190" as="targetPoint" />
            <Array as="points">
              <mxPoint x="425" y="130" />
              <mxPoint x="425" y="190" />
            </Array>
          </mxGeometry>
        </mxCell>
        <mxCell id="fJNHWVGutAqgB4lxBWRM-11" value="" style="endArrow=none;html=1;rounded=1;jumpStyle=none;shadow=0;sketch=0;" parent="1" edge="1">
          <mxGeometry width="50" height="50" relative="1" as="geometry">
            <mxPoint x="410" y="580" as="sourcePoint" />
            <mxPoint x="410" y="580" as="targetPoint" />
            <Array as="points">
              <mxPoint x="410" y="540" />
              <mxPoint x="450" y="540" />
              <mxPoint x="450" y="480" />
              <mxPoint x="530" y="480" />
              <mxPoint x="530" y="520" />
              <mxPoint x="490" y="520" />
              <mxPoint x="490" y="540" />
              <mxPoint x="490" y="580" />
            </Array>
          </mxGeometry>
        </mxCell>
        <mxCell id="fJNHWVGutAqgB4lxBWRM-12" value="" style="endArrow=none;html=1;shadow=0;" parent="1" edge="1">
          <mxGeometry width="50" height="50" relative="1" as="geometry">
            <mxPoint x="400" y="580" as="sourcePoint" />
            <mxPoint x="400" y="580" as="targetPoint" />
            <Array as="points">
              <mxPoint x="400" y="520" />
              <mxPoint x="440" y="520" />
              <mxPoint x="440" y="480" />
              <mxPoint x="320" y="480" />
              <mxPoint x="320" y="520" />
              <mxPoint x="360" y="520" />
              <mxPoint x="360" y="580" />
            </Array>
          </mxGeometry>
        </mxCell>
        <mxCell id="fJNHWVGutAqgB4lxBWRM-18" value="" style="endArrow=none;html=1;shadow=0;strokeWidth=20;strokeColor=#FFFFFF;" parent="1" edge="1">
          <mxGeometry width="50" height="50" relative="1" as="geometry">
            <mxPoint x="320" y="300" as="sourcePoint" />
            <mxPoint x="400" y="300" as="targetPoint" />
          </mxGeometry>
        </mxCell>
        <mxCell id="fJNHWVGutAqgB4lxBWRM-19" value="" style="endArrow=none;html=1;shadow=0;strokeWidth=20;strokeColor=#FFFFFF;" parent="1" edge="1">
          <mxGeometry width="50" height="50" relative="1" as="geometry">
            <mxPoint x="360" y="290" as="sourcePoint" />
            <mxPoint x="360" y="370" as="targetPoint" />
          </mxGeometry>
        </mxCell>
        <mxCell id="fJNHWVGutAqgB4lxBWRM-20" value="" style="endArrow=none;html=1;shadow=0;strokeWidth=20;rounded=0;strokeColor=#FFFFFF;" parent="1" edge="1">
          <mxGeometry width="50" height="50" relative="1" as="geometry">
            <mxPoint x="465" y="300" as="sourcePoint" />
            <mxPoint x="385" y="360" as="targetPoint" />
            <Array as="points">
              <mxPoint x="425" y="300" />
              <mxPoint x="425" y="360" />
            </Array>
          </mxGeometry>
        </mxCell>
        <mxCell id="PAsbSwXsMVWR3_cCxWgo-11" value="" style="whiteSpace=wrap;html=1;shape=mxgraph.basic.pointed_oval;rounded=0;shadow=0;rotation=40;strokeWidth=5;strokeColor=none;fillColor=#82B366;" parent="1" vertex="1">
          <mxGeometry x="390" y="41.96" width="40" height="78.98" as="geometry" />
        </mxCell>
        <mxCell id="PAsbSwXsMVWR3_cCxWgo-13" value="" style="endArrow=none;html=1;shadow=0;strokeWidth=20;strokeColor=#FFFFFF;" parent="1" edge="1">
          <mxGeometry width="50" height="50" relative="1" as="geometry">
            <mxPoint x="500" y="130" as="sourcePoint" />
            <mxPoint x="580" y="130" as="targetPoint" />
          </mxGeometry>
        </mxCell>
        <mxCell id="PAsbSwXsMVWR3_cCxWgo-14" value="" style="endArrow=none;html=1;shadow=0;strokeWidth=20;strokeColor=#FFFFFF;" parent="1" edge="1">
          <mxGeometry width="50" height="50" relative="1" as="geometry">
            <mxPoint x="540" y="120" as="sourcePoint" />
            <mxPoint x="540" y="200" as="targetPoint" />
          </mxGeometry>
        </mxCell>
        <mxCell id="PAsbSwXsMVWR3_cCxWgo-15" value="" style="endArrow=none;html=1;shadow=0;strokeWidth=20;rounded=0;strokeColor=#FFFFFF;" parent="1" edge="1">
          <mxGeometry width="50" height="50" relative="1" as="geometry">
            <mxPoint x="645" y="130" as="sourcePoint" />
            <mxPoint x="565" y="190" as="targetPoint" />
            <Array as="points">
              <mxPoint x="605" y="130" />
              <mxPoint x="605" y="190" />
            </Array>
          </mxGeometry>
        </mxCell>
        <mxCell id="PAsbSwXsMVWR3_cCxWgo-16" value="" style="whiteSpace=wrap;html=1;shape=mxgraph.basic.pointed_oval;rounded=0;shadow=0;rotation=40;strokeWidth=5;strokeColor=none;fillColor=#82B366;" parent="1" vertex="1">
          <mxGeometry x="570" y="41.96" width="40" height="78.98" as="geometry" />
        </mxCell>
        <mxCell id="Smb6MRxAM-0thneAjzOX-1" value="" style="endArrow=none;html=1;shadow=0;strokeWidth=20;strokeColor=#808080;" edge="1" parent="1">
          <mxGeometry width="50" height="50" relative="1" as="geometry">
            <mxPoint x="120" y="130" as="sourcePoint" />
            <mxPoint x="200" y="130" as="targetPoint" />
          </mxGeometry>
        </mxCell>
        <mxCell id="Smb6MRxAM-0thneAjzOX-2" value="" style="endArrow=none;html=1;shadow=0;strokeWidth=20;strokeColor=#808080;" edge="1" parent="1">
          <mxGeometry width="50" height="50" relative="1" as="geometry">
            <mxPoint x="160" y="120" as="sourcePoint" />
            <mxPoint x="160" y="200" as="targetPoint" />
          </mxGeometry>
        </mxCell>
        <mxCell id="Smb6MRxAM-0thneAjzOX-3" value="" style="endArrow=none;html=1;shadow=0;strokeWidth=20;rounded=0;strokeColor=#808080;" edge="1" parent="1">
          <mxGeometry width="50" height="50" relative="1" as="geometry">
            <mxPoint x="265" y="130" as="sourcePoint" />
            <mxPoint x="185" y="190" as="targetPoint" />
            <Array as="points">
              <mxPoint x="225" y="130" />
              <mxPoint x="225" y="190" />
            </Array>
          </mxGeometry>
        </mxCell>
        <mxCell id="Smb6MRxAM-0thneAjzOX-4" value="" style="whiteSpace=wrap;html=1;shape=mxgraph.basic.pointed_oval;rounded=0;shadow=0;rotation=40;strokeWidth=5;strokeColor=none;fillColor=#82B366;" vertex="1" parent="1">
          <mxGeometry x="190" y="41.96" width="40" height="78.98" as="geometry" />
        </mxCell>
      </root>
    </mxGraphModel>
  </diagram>
</mxfile>
